<svg width="187" height="111" viewBox="0 0 187 111" fill="none" xmlns="http://www.w3.org/2000/svg">
<g clip-path="url(#clip0)">
<path d="M5.05902 8.19712L3.69171 6.27507C3.53789 6.29216 3.37837 6.3007 3.21315 6.3007H1.60656V8.19712H0.974182V2.21742H3.21315C3.97657 2.21742 4.57477 2.39966 5.00775 2.76414C5.44073 3.12862 5.65722 3.62977 5.65722 4.26761C5.65722 4.73459 5.53759 5.13039 5.29831 5.455C5.06472 5.77392 4.72859 6.00456 4.28991 6.14694L5.75123 8.19712H5.05902ZM3.19606 5.76253C3.78856 5.76253 4.24148 5.63154 4.55483 5.36958C4.86817 5.10761 5.02484 4.74028 5.02484 4.26761C5.02484 3.78353 4.86817 3.41337 4.55483 3.15709C4.24148 2.89512 3.78856 2.76414 3.19606 2.76414H1.60656V5.76253H3.19606ZM10.9355 6.13839H7.17542C7.20961 6.60538 7.38906 6.9841 7.71379 7.27453C8.03852 7.55926 8.4487 7.70168 8.9444 7.70168C9.22353 7.70168 9.47994 7.65323 9.71347 7.55646C9.94708 7.45393 10.1493 7.30586 10.3202 7.11223L10.6621 7.50519C10.4627 7.74439 10.212 7.92657 9.91004 8.05189C9.61378 8.1772 9.28617 8.23982 8.92728 8.23982C8.46582 8.23982 8.05564 8.14298 7.69667 7.94936C7.34346 7.75007 7.06717 7.4767 6.86777 7.12931C6.66838 6.78192 6.56868 6.38897 6.56868 5.95046C6.56868 5.51195 6.66268 5.119 6.85069 4.77161C7.04439 4.42422 7.30642 4.1537 7.63691 3.96008C7.973 3.76645 8.34902 3.66964 8.76495 3.66964C9.18081 3.66964 9.55394 3.76645 9.88443 3.96008C10.2148 4.1537 10.4741 4.42422 10.6621 4.77161C10.8501 5.11331 10.9441 5.50626 10.9441 5.95046L10.9355 6.13839ZM8.76495 4.19072C8.33197 4.19072 7.96732 4.33025 7.67107 4.6093C7.3805 4.88266 7.21529 5.24144 7.17542 5.68564H10.3629C10.3231 5.24144 10.155 4.88266 9.85875 4.6093C9.56819 4.33025 9.20361 4.19072 8.76495 4.19072ZM14.4693 3.66964C15.0333 3.66964 15.4805 3.83479 15.811 4.1651C16.1471 4.48971 16.3151 4.96524 16.3151 5.59168V8.19712H15.7084V5.65148C15.7084 5.18449 15.5917 4.82856 15.3581 4.58367C15.1245 4.33879 14.7912 4.21635 14.3582 4.21635C13.8739 4.21635 13.4894 4.36157 13.2045 4.65202C12.9254 4.93676 12.7858 5.33256 12.7858 5.83941V8.19712H12.1791V1.85864H12.7858V4.48971C12.951 4.22774 13.1789 4.02557 13.4694 3.8832C13.76 3.74082 14.0933 3.66964 14.4693 3.66964ZM19.5349 3.66964C20.1217 3.66964 20.5717 3.81771 20.8851 4.11384C21.1984 4.40429 21.3551 4.8371 21.3551 5.41229V8.19712H20.7739V7.49664C20.6372 7.73015 20.435 7.91234 20.1672 8.04333C19.9052 8.17432 19.5918 8.23982 19.2272 8.23982C18.7259 8.23982 18.327 8.12026 18.0308 7.88106C17.7345 7.64187 17.5864 7.32579 17.5864 6.93284C17.5864 6.55128 17.7232 6.24375 17.9966 6.01026C18.2758 5.77676 18.7173 5.66002 19.3212 5.66002H20.7483V5.38666C20.7483 4.99941 20.6401 4.70612 20.4236 4.5068C20.2071 4.30177 19.8909 4.19926 19.475 4.19926C19.1902 4.19926 18.9167 4.24767 18.6547 4.34448C18.3926 4.4356 18.1675 4.56374 17.9795 4.72889L17.7061 4.27615C17.9339 4.08252 18.2074 3.93445 18.5264 3.83194C18.8455 3.72374 19.1816 3.66964 19.5349 3.66964ZM19.3212 7.76143C19.663 7.76143 19.9564 7.68457 20.2014 7.53079C20.4464 7.37135 20.6287 7.14355 20.7483 6.84742V6.11277H19.3383C18.5691 6.11277 18.1846 6.38043 18.1846 6.91575C18.1846 7.17772 18.2843 7.38559 18.4837 7.53934C18.6831 7.68745 18.9623 7.76143 19.3212 7.76143ZM25.2933 3.66964C25.8573 3.66964 26.3045 3.83479 26.635 4.1651C26.9711 4.48971 27.1392 4.96524 27.1392 5.59168V8.19712H26.5325V5.65148C26.5325 5.18449 26.4157 4.82856 26.1821 4.58367C25.9485 4.33879 25.6152 4.21635 25.1822 4.21635C24.6979 4.21635 24.3134 4.36157 24.0285 4.65202C23.7494 4.93676 23.6098 5.33256 23.6098 5.83941V8.19712H23.0031V3.7038H23.5842V4.53242C23.7494 4.25907 23.9773 4.04835 24.2678 3.90028C24.5641 3.74652 24.9059 3.66964 25.2933 3.66964Z" fill="#504F4F"/>
<path d="M172.764 71.5547V73.622H172.14V71.5547L169.747 67.6423H170.422L172.473 70.9995L174.524 67.6423H175.156L172.764 71.5547ZM177.337 73.6644C176.904 73.6644 176.514 73.5681 176.166 73.374C175.819 73.1748 175.546 72.9016 175.346 72.5544C175.146 72.2071 175.047 71.8138 175.047 71.3754C175.047 70.9369 175.146 70.5439 175.346 70.1965C175.546 69.8491 175.819 69.5786 176.166 69.385C176.514 69.1913 176.904 69.0945 177.337 69.0945C177.77 69.0945 178.161 69.1913 178.508 69.385C178.855 69.5786 179.126 69.8491 179.32 70.1965C179.519 70.5439 179.619 70.9369 179.619 71.3754C179.619 71.8138 179.519 72.2071 179.32 72.5544C179.126 72.9016 178.855 73.1748 178.508 73.374C178.161 73.5681 177.77 73.6644 177.337 73.6644ZM177.337 73.1267C177.656 73.1267 177.941 73.0555 178.192 72.9131C178.448 72.765 178.648 72.5573 178.79 72.2891C178.932 72.0218 179.004 71.7171 179.004 71.3754C179.004 71.0336 178.932 70.729 178.79 70.4614C178.648 70.1937 178.448 69.9886 178.192 69.8463C177.941 69.6982 177.656 69.6242 177.337 69.6242C177.018 69.6242 176.731 69.6982 176.474 69.8463C176.224 69.9886 176.024 70.1937 175.876 70.4614C175.733 70.729 175.662 71.0336 175.662 71.3754C175.662 71.7171 175.733 72.0218 175.876 72.2891C176.024 72.5573 176.224 72.765 176.474 72.9131C176.731 73.0555 177.018 73.1267 177.337 73.1267ZM184.908 69.1287V73.622H184.327V72.8017C184.168 73.0756 183.948 73.2891 183.669 73.4423C183.39 73.5904 183.071 73.6644 182.712 73.6644C182.125 73.6644 181.661 73.5027 181.319 73.1777C180.983 72.8477 180.815 72.366 180.815 71.7341V69.1287H181.422V71.6744C181.422 72.147 181.538 72.5055 181.772 72.7506C182.006 72.9958 182.339 73.118 182.772 73.118C183.245 73.118 183.618 72.9757 183.891 72.691C184.165 72.4005 184.301 71.999 184.301 71.4864V69.1287H184.908Z" fill="#504F4F"/>
<path d="M0 21.1383C0 17.1676 3.2201 13.9487 7.19231 13.9487H179.21C183.182 13.9487 186.402 17.1676 186.402 21.1383V39.8311C186.402 43.8017 183.182 47.0206 179.21 47.0206H0V21.1383Z" fill="#F7F7F4"/>
<path d="M19.1945 30.6138C19.1945 31.9693 18.8255 33.0066 18.0875 33.7255C17.3533 34.4407 16.295 34.7983 14.9128 34.7983H12.6371V26.5865H15.1544C16.4318 26.5865 17.4245 26.9404 18.1324 27.6481C18.8405 28.3559 19.1945 29.3444 19.1945 30.6138ZM18.183 30.6475C18.183 29.5766 17.9133 28.7696 17.3739 28.2267C16.8383 27.6837 16.0403 27.4122 14.9802 27.4122H13.5923V33.9727H14.7554C15.8943 33.9727 16.7502 33.6937 17.3233 33.1358C17.8965 32.574 18.183 31.7447 18.183 30.6475ZM21.7679 28.6423V32.6359C21.7679 33.1376 21.8822 33.5121 22.1107 33.7592C22.3392 34.0063 22.697 34.1299 23.184 34.1299C23.8282 34.1299 24.2984 33.9539 24.5943 33.6019C24.894 33.25 25.0438 32.6752 25.0438 31.8776V28.6423H25.9766V34.7983H25.2068L25.0719 33.9727H25.0214C24.8303 34.276 24.5643 34.5082 24.2235 34.6691C23.8863 34.8302 23.5005 34.9106 23.0659 34.9106C22.3167 34.9106 21.7548 34.7328 21.3803 34.3771C21.0094 34.0214 20.8239 33.4522 20.8239 32.6696V28.6423H21.7679ZM32.1518 33.9727H32.1013C31.6705 34.598 31.0262 34.9106 30.1683 34.9106C29.3629 34.9106 28.7355 34.6354 28.286 34.085C27.8402 33.5346 27.6173 32.7519 27.6173 31.7372C27.6173 30.7224 27.8421 29.9342 28.2916 29.3725C28.7411 28.8108 29.3667 28.5299 30.1683 28.5299C31.0037 28.5299 31.6443 28.8333 32.09 29.4399H32.1631L32.1238 28.9962L32.1013 28.5636V26.0586H33.034V34.7983H32.2755L32.1518 33.9727ZM30.2864 34.1299C30.9232 34.1299 31.3839 33.9577 31.6686 33.6132C31.9571 33.265 32.1013 32.7051 32.1013 31.9337V31.7372C32.1013 30.8647 31.9552 30.2431 31.663 29.8724C31.3746 29.4979 30.9119 29.3107 30.2751 29.3107C29.7282 29.3107 29.3086 29.5242 29.0165 29.951C28.728 30.3742 28.5838 30.9733 28.5838 31.7484C28.5838 32.5348 28.728 33.1283 29.0165 33.529C29.3049 33.9296 29.7282 34.1299 30.2864 34.1299ZM37.6191 34.9106C36.7089 34.9106 35.9896 34.6336 35.4614 34.0794C34.937 33.5252 34.6747 32.7557 34.6747 31.7709C34.6747 30.7786 34.9183 29.9903 35.4053 29.4062C35.896 28.822 36.5534 28.5299 37.3775 28.5299C38.1492 28.5299 38.7598 28.7846 39.2093 29.2939C39.6588 29.7994 39.8836 30.4678 39.8836 31.2991V31.8888H35.6413C35.66 32.6115 35.8416 33.1601 36.1863 33.5346C36.5347 33.909 37.0235 34.0962 37.6529 34.0962C38.3159 34.0962 38.9714 33.9577 39.6195 33.6806V34.5119C39.2898 34.6542 38.977 34.7553 38.6811 34.8152C38.3889 34.8789 38.0349 34.9106 37.6191 34.9106ZM37.3663 29.3107C36.8718 29.3107 36.4766 29.4717 36.1807 29.7938C35.8884 30.1158 35.7162 30.5614 35.6637 31.1305H38.8834C38.8834 30.5426 38.7523 30.0933 38.4901 29.7825C38.2278 29.4679 37.8532 29.3107 37.3663 29.3107ZM42.457 33.4615L42.5413 33.5907C42.444 33.9651 42.3035 34.3995 42.1199 34.8938C41.9364 35.3918 41.7454 35.8543 41.5468 36.2812H40.8445C40.9456 35.8917 41.0561 35.4106 41.176 34.8377C41.2996 34.2647 41.3857 33.806 41.4344 33.4615H42.457ZM47.4299 26.5865H49.7505C50.8406 26.5865 51.6292 26.7494 52.1161 27.0752C52.6031 27.401 52.8466 27.9159 52.8466 28.6198C52.8466 29.1066 52.7099 29.5091 52.4364 29.8274C52.1667 30.142 51.7715 30.3461 51.2508 30.4397V30.4958C52.4982 30.7093 53.1219 31.3646 53.1219 32.4617C53.1219 33.1957 52.8728 33.7686 52.3746 34.1805C51.8801 34.5924 51.1871 34.7983 50.2956 34.7983H47.4299V26.5865ZM48.3851 30.1027H49.9584C50.6327 30.1027 51.1178 29.9978 51.4138 29.7881C51.7097 29.5747 51.8577 29.2171 51.8577 28.7153C51.8577 28.2547 51.6928 27.9233 51.3632 27.7211C51.0335 27.5152 50.5091 27.4122 49.7899 27.4122H48.3851V30.1027ZM48.3851 30.9115V33.9839H50.0989C50.7619 33.9839 51.2601 33.8566 51.5936 33.6019C51.9307 33.3436 52.0993 32.9411 52.0993 32.3943C52.0993 31.8851 51.9269 31.5106 51.5824 31.271C51.2414 31.0313 50.7207 30.9115 50.0203 30.9115H48.3851ZM60.067 31.7147C60.067 32.7183 59.8142 33.5027 59.3084 34.0682C58.8027 34.6298 58.1041 34.9106 57.2126 34.9106C56.6619 34.9106 56.1731 34.7815 55.746 34.5231C55.319 34.2647 54.9893 33.894 54.757 33.411C54.5248 32.9279 54.4086 32.3625 54.4086 31.7147C54.4086 30.7112 54.6597 29.9304 55.1616 29.3725C55.6636 28.8108 56.3604 28.5299 57.2519 28.5299C58.1135 28.5299 58.7971 28.8164 59.3028 29.3894C59.8123 29.9622 60.067 30.7374 60.067 31.7147ZM55.3752 31.7147C55.3752 32.5011 55.5324 33.1002 55.8471 33.5121C56.1618 33.924 56.6245 34.1299 57.235 34.1299C57.8456 34.1299 58.3082 33.9259 58.6229 33.5177C58.9413 33.1058 59.1005 32.5048 59.1005 31.7147C59.1005 30.9321 58.9413 30.3386 58.6229 29.9342C58.3082 29.526 57.8419 29.3219 57.2238 29.3219C56.6132 29.3219 56.1524 29.5223 55.8415 29.923C55.5306 30.3236 55.3752 30.9209 55.3752 31.7147ZM63.6969 34.1411C63.8617 34.1411 64.0209 34.1299 64.1745 34.1075C64.3281 34.0813 64.4498 34.055 64.5397 34.0288V34.7422C64.4386 34.7909 64.2887 34.8302 64.0902 34.8601C63.8954 34.8938 63.7194 34.9106 63.562 34.9106C62.3708 34.9106 61.7752 34.2835 61.7752 33.0291V29.3669H60.893V28.9175L61.7752 28.5299L62.1685 27.2156H62.7079V28.6423H64.4948V29.3669H62.7079V32.9897C62.7079 33.3604 62.796 33.645 62.972 33.8435C63.1481 34.0419 63.3897 34.1411 63.6969 34.1411ZM67.7651 34.1411C67.9298 34.1411 68.0891 34.1299 68.2426 34.1075C68.3962 34.0813 68.5179 34.055 68.6078 34.0288V34.7422C68.5067 34.7909 68.3569 34.8302 68.1583 34.8601C67.9636 34.8938 67.7875 34.9106 67.6301 34.9106C66.4389 34.9106 65.8433 34.2835 65.8433 33.0291V29.3669H64.9611V28.9175L65.8433 28.5299L66.2367 27.2156H66.7761V28.6423H68.5629V29.3669H66.7761V32.9897C66.7761 33.3604 66.8641 33.645 67.0401 33.8435C67.2162 34.0419 67.4579 34.1411 67.7651 34.1411ZM70.7768 34.7983H69.8441V26.0586H70.7768V34.7983ZM75.356 34.9106C74.4461 34.9106 73.7269 34.6336 73.1983 34.0794C72.6739 33.5252 72.4121 32.7557 72.4121 31.7709C72.4121 30.7786 72.6552 29.9903 73.1422 29.4062C73.6334 28.822 74.2908 28.5299 75.115 28.5299C75.886 28.5299 76.4967 28.7846 76.9462 29.2939C77.3957 29.7994 77.6208 30.4678 77.6208 31.2991V31.8888H73.3781C73.3968 32.6115 73.5787 33.1601 73.9232 33.5346C74.2721 33.909 74.7604 34.0962 75.3898 34.0962C76.0529 34.0962 76.7088 33.9577 77.3569 33.6806V34.5119C77.0267 34.6542 76.7139 34.7553 76.4183 34.8152C76.1263 34.8789 75.7724 34.9106 75.356 34.9106ZM75.1035 29.3107C74.6087 29.3107 74.2138 29.4717 73.9175 29.7938C73.6255 30.1158 73.4536 30.5614 73.4011 31.1305H76.6204C76.6204 30.5426 76.4895 30.0933 76.2269 29.7825C75.9651 29.4679 75.5904 29.3107 75.1035 29.3107ZM83.1388 34.7983H82.2059V28.6423H83.1388V34.7983ZM82.1275 26.9741C82.1275 26.7607 82.1793 26.6053 82.2843 26.5079C82.3893 26.4068 82.5202 26.3562 82.6777 26.3562C82.8273 26.3562 82.9568 26.4068 83.0654 26.5079C83.174 26.609 83.2287 26.7644 83.2287 26.9741C83.2287 27.1838 83.174 27.3411 83.0654 27.4459C82.9568 27.547 82.8273 27.5976 82.6777 27.5976C82.5202 27.5976 82.3893 27.547 82.2843 27.4459C82.1793 27.3411 82.1275 27.1838 82.1275 26.9741ZM89.089 33.1189C89.089 33.6918 88.8753 34.1337 88.4488 34.4445C88.0216 34.7553 87.4218 34.9106 86.6508 34.9106C85.8337 34.9106 85.1972 34.7815 84.7398 34.5231V33.6582C85.0361 33.8079 85.3525 33.9259 85.6899 34.012C86.0308 34.0981 86.358 34.1411 86.6731 34.1411C87.16 34.1411 87.5347 34.0644 87.7965 33.9109C88.059 33.7536 88.1899 33.5158 88.1899 33.1975C88.1899 32.9579 88.0849 32.7538 87.8756 32.5853C87.6692 32.4131 87.265 32.2108 86.6615 31.9787C86.0883 31.7652 85.6805 31.5799 85.4367 31.4226C85.1972 31.2616 85.0174 31.08 84.8973 30.8778C84.7815 30.6756 84.7232 30.4341 84.7232 30.1533C84.7232 29.6514 84.9275 29.2564 85.3353 28.9681C85.7438 28.676 86.3041 28.5299 87.0154 28.5299C87.6785 28.5299 88.3266 28.6648 88.9602 28.9344L88.6286 29.6926C88.0101 29.438 87.4505 29.3107 86.9485 29.3107C86.5062 29.3107 86.1725 29.3799 85.9481 29.5185C85.7237 29.6571 85.6107 29.8481 85.6107 30.0914C85.6107 30.2562 85.6525 30.3966 85.7345 30.5127C85.8208 30.6288 85.9574 30.7393 86.1444 30.8441C86.3321 30.9489 86.6918 31.1006 87.2233 31.2991C87.954 31.5649 88.4467 31.8327 88.7013 32.1023C88.9602 32.3719 89.089 32.7108 89.089 33.1189ZM94.5227 31.6473C94.6838 31.4189 94.9291 31.1193 95.2585 30.7486L97.2479 28.6423H98.3548L95.8598 31.2653L98.5289 34.7983H97.3997L95.2247 31.8888L94.5227 32.4955V34.7983H93.6014V26.0586H94.5227V30.6925C94.5227 30.8984 94.5076 31.2167 94.4774 31.6473H94.5227ZM100.58 34.7983H99.6473V28.6423H100.58V34.7983ZM99.5689 26.9741C99.5689 26.7607 99.6207 26.6053 99.7257 26.5079C99.8307 26.4068 99.9616 26.3562 100.119 26.3562C100.269 26.3562 100.398 26.4068 100.507 26.5079C100.615 26.609 100.67 26.7644 100.67 26.9741C100.67 27.1838 100.615 27.3411 100.507 27.4459C100.398 27.547 100.269 27.5976 100.119 27.5976C99.9616 27.5976 99.8307 27.547 99.7257 27.4459C99.6207 27.3411 99.5689 27.1838 99.5689 26.9741ZM106.772 34.7983V30.816C106.772 30.3142 106.658 29.9398 106.43 29.6926C106.201 29.4455 105.843 29.3219 105.356 29.3219C104.712 29.3219 104.24 29.4961 103.94 29.8443C103.64 30.1926 103.491 30.7673 103.491 31.5687V34.7983H102.558V28.6423H103.316L103.468 29.4848H103.513C103.704 29.1815 103.972 28.9475 104.317 28.7827C104.661 28.6142 105.045 28.5299 105.469 28.5299C106.21 28.5299 106.768 28.7097 107.143 29.0691C107.518 29.4249 107.705 29.9959 107.705 30.7823V34.7983H106.772ZM113.818 33.9727H113.768C113.337 34.598 112.693 34.9106 111.835 34.9106C111.029 34.9106 110.402 34.6354 109.952 34.085C109.506 33.5346 109.284 32.7519 109.284 31.7372C109.284 30.7224 109.509 29.9342 109.958 29.3725C110.408 28.8108 111.033 28.5299 111.835 28.5299C112.67 28.5299 113.31 28.8333 113.756 29.4399H113.83L113.79 28.9962L113.768 28.5636V26.0586H114.701V34.7983H113.942L113.818 33.9727ZM111.953 34.1299C112.59 34.1299 113.05 33.9577 113.335 33.6132C113.623 33.265 113.768 32.7051 113.768 31.9337V31.7372C113.768 30.8647 113.622 30.2431 113.329 29.8724C113.041 29.4979 112.578 29.3107 111.942 29.3107C111.394 29.3107 110.975 29.5242 110.683 29.951C110.395 30.3742 110.25 30.9733 110.25 31.7484C110.25 32.5348 110.395 33.1283 110.683 33.529C110.972 33.9296 111.394 34.1299 111.953 34.1299ZM120.471 34.7983L120.286 33.9221H120.241C119.934 34.3078 119.627 34.5699 119.319 34.7085C119.016 34.8433 118.636 34.9106 118.178 34.9106C117.568 34.9106 117.089 34.7534 116.74 34.4389C116.395 34.1243 116.223 33.6768 116.223 33.0964C116.223 31.8532 117.218 31.2017 119.207 31.1418L120.252 31.1081V30.7261C120.252 30.2431 120.147 29.8874 119.937 29.659C119.731 29.4268 119.399 29.3107 118.943 29.3107C118.429 29.3107 117.849 29.4679 117.201 29.7825L116.915 29.0691C117.218 28.9044 117.55 28.7752 117.909 28.6816C118.272 28.588 118.636 28.5412 118.999 28.5412C119.733 28.5412 120.276 28.7041 120.629 29.0299C120.985 29.3556 121.162 29.878 121.162 30.5969V34.7983H120.471ZM118.364 34.1411C118.945 34.1411 119.399 33.982 119.73 33.6638C120.063 33.3455 120.229 32.8999 120.229 32.3269V31.7709L119.297 31.8102C118.555 31.8364 118.019 31.9525 117.69 32.1584C117.364 32.3607 117.201 32.6771 117.201 33.1077C117.201 33.4447 117.302 33.7012 117.504 33.8772C117.71 34.0531 117.997 34.1411 118.364 34.1411ZM128.54 34.9106C127.648 34.9106 126.957 34.6373 126.467 34.0906C125.98 33.5402 125.736 32.7632 125.736 31.7596C125.736 30.7299 125.983 29.9342 126.478 29.3725C126.976 28.8108 127.684 28.5299 128.602 28.5299C128.898 28.5299 129.194 28.5618 129.49 28.6255C129.786 28.6891 130.017 28.764 130.187 28.8501L129.9 29.6421C129.694 29.5597 129.469 29.4923 129.226 29.4399C128.982 29.3838 128.767 29.3556 128.579 29.3556C127.328 29.3556 126.703 30.1533 126.703 31.7484C126.703 32.5048 126.854 33.0852 127.158 33.4896C127.465 33.894 127.918 34.0962 128.518 34.0962C129.031 34.0962 129.557 33.9858 130.097 33.7648V34.5905C129.684 34.804 129.166 34.9106 128.54 34.9106ZM136.878 31.7147C136.878 32.7183 136.626 33.5027 136.12 34.0682C135.615 34.6298 134.915 34.9106 134.024 34.9106C133.473 34.9106 132.984 34.7815 132.558 34.5231C132.131 34.2647 131.801 33.894 131.569 33.411C131.337 32.9279 131.22 32.3625 131.22 31.7147C131.22 30.7112 131.471 29.9304 131.973 29.3725C132.475 28.8108 133.172 28.5299 134.063 28.5299C134.925 28.5299 135.609 28.8164 136.114 29.3894C136.624 29.9622 136.878 30.7374 136.878 31.7147ZM132.187 31.7147C132.187 32.5011 132.344 33.1002 132.659 33.5121C132.974 33.924 133.436 34.1299 134.047 34.1299C134.657 34.1299 135.12 33.9259 135.435 33.5177C135.753 33.1058 135.912 32.5048 135.912 31.7147C135.912 30.9321 135.753 30.3386 135.435 29.9342C135.12 29.526 134.654 29.3219 134.035 29.3219C133.424 29.3219 132.964 29.5223 132.653 29.923C132.342 30.3236 132.187 30.9209 132.187 31.7147ZM143.835 31.7147C143.835 32.7183 143.582 33.5027 143.077 34.0682C142.571 34.6298 141.872 34.9106 140.981 34.9106C140.43 34.9106 139.941 34.7815 139.514 34.5231C139.087 34.2647 138.757 33.894 138.525 33.411C138.293 32.9279 138.176 32.3625 138.176 31.7147C138.176 30.7112 138.427 29.9304 138.929 29.3725C139.432 28.8108 140.128 28.5299 141.02 28.5299C141.881 28.5299 142.565 28.8164 143.071 29.3894C143.58 29.9622 143.835 30.7374 143.835 31.7147ZM139.143 31.7147C139.143 32.5011 139.301 33.1002 139.615 33.5121C139.93 33.924 140.392 34.1299 141.003 34.1299C141.614 34.1299 142.076 33.9259 142.391 33.5177C142.709 33.1058 142.869 32.5048 142.869 31.7147C142.869 30.9321 142.709 30.3386 142.391 29.9342C142.076 29.526 141.61 29.3219 140.992 29.3219C140.381 29.3219 139.921 29.5223 139.609 29.923C139.298 30.3236 139.143 30.9209 139.143 31.7147ZM146.408 34.7983H145.476V26.0586H146.408V34.7983ZM149.229 32.5348H148.639L148.353 26.5865H149.516L149.229 32.5348ZM148.251 34.203C148.251 33.6937 148.477 33.4391 148.925 33.4391C149.143 33.4391 149.309 33.5046 149.426 33.6357C149.545 33.7667 149.606 33.9558 149.606 34.203C149.606 34.4426 149.545 34.6298 149.426 34.7646C149.306 34.8957 149.139 34.9613 148.925 34.9613C148.731 34.9613 148.57 34.9032 148.443 34.7871C148.315 34.6673 148.251 34.4726 148.251 34.203Z" fill="#504F4F"/>
<path d="M162.774 31.5376V32.1321H163.854V36.3213H164.531V31.5376H162.774ZM166.488 35.7267L167.95 34.319C168.6 33.6971 168.737 33.2802 168.737 32.8155C168.737 31.9955 168.094 31.4829 167.096 31.4829C166.351 31.4829 165.715 31.7494 165.346 32.2073L165.811 32.6104C166.105 32.2551 166.521 32.0911 167.034 32.0911C167.704 32.0911 168.053 32.3918 168.053 32.8839C168.053 33.1845 167.958 33.4852 167.451 33.9772L165.503 35.8566V36.3213H168.942V35.7267H166.488ZM169.955 33.6014C170.201 33.6014 170.407 33.4032 170.407 33.1299C170.407 32.8565 170.201 32.6652 169.955 32.6652C169.703 32.6652 169.49 32.8565 169.49 33.1299C169.49 33.4032 169.703 33.6014 169.955 33.6014ZM169.955 36.3623C170.201 36.3623 170.407 36.1641 170.407 35.8907C170.407 35.6174 170.201 35.4261 169.955 35.4261C169.703 35.4261 169.49 35.6174 169.49 35.8907C169.49 36.1641 169.703 36.3623 169.955 36.3623ZM172.885 33.5467L174.136 32.0023V31.5376H170.978V32.1321H173.281L172.078 33.6082V34.0866H172.461C173.281 34.0866 173.644 34.4147 173.644 34.9204C173.644 35.4397 173.234 35.7677 172.516 35.7677C171.928 35.7677 171.395 35.5559 171.073 35.2552L170.759 35.795C171.163 36.1573 171.832 36.376 172.516 36.376C173.733 36.376 174.328 35.7199 174.328 34.9135C174.328 34.1755 173.842 33.6356 172.885 33.5467ZM179.129 34.5582H178.22V33.5194H177.577V34.5582H175.738L178.082 31.5376H177.344L174.897 34.6675V35.1458H177.557V36.3213H178.22V35.1458H179.129V34.5582Z" fill="#BEBEBE"/>
<path d="M97.8154 84.4063C97.8154 80.4356 101.035 77.2168 105.008 77.2168H179.21C183.182 77.2168 186.402 80.4356 186.402 84.4063V110.289H105.008C101.035 110.289 97.8154 107.07 97.8154 103.099V84.4063Z" fill="#69A08A"/>
<path d="M110.452 98.0664V89.8545H111.407V98.0664H110.452ZM120.488 96.3869C120.488 96.9599 120.275 97.4021 119.848 97.7127C119.42 98.0232 118.821 98.1785 118.049 98.1785C117.232 98.1785 116.596 98.0499 116.139 97.791V96.9261C116.435 97.0757 116.751 97.1936 117.089 97.2799C117.43 97.3661 117.757 97.4093 118.072 97.4093C118.559 97.4093 118.933 97.3323 119.196 97.1792C119.458 97.0217 119.589 96.7838 119.589 96.4653C119.589 96.2259 119.484 96.0217 119.274 95.8534C119.068 95.6809 118.664 95.4789 118.06 95.2466C117.488 95.0331 117.079 94.8476 116.835 94.6909C116.596 94.5298 116.416 94.348 116.296 94.1459C116.18 93.9439 116.122 93.7023 116.122 93.4212C116.122 92.9194 116.326 92.5247 116.735 92.2364C117.143 91.9438 117.703 91.7978 118.415 91.7978C119.077 91.7978 119.726 91.933 120.359 92.2026L120.027 92.9604C119.409 92.7059 118.849 92.5786 118.347 92.5786C117.905 92.5786 117.572 92.6484 117.347 92.7864C117.122 92.9251 117.01 93.1164 117.01 93.3594C117.01 93.524 117.051 93.6649 117.133 93.7807C117.22 93.8972 117.356 94.0072 117.544 94.1121C117.731 94.2171 118.09 94.3688 118.623 94.5672C119.353 94.8332 119.845 95.1007 120.1 95.3703C120.359 95.6399 120.488 95.9785 120.488 96.3869ZM127.04 98.0664L125.91 94.4551C125.839 94.2336 125.706 93.7318 125.512 92.9496H125.466C125.317 93.6046 125.186 94.11 125.073 94.4659L123.91 98.0664H122.831L121.151 91.9107H122.129C122.526 93.4572 122.827 94.6348 123.033 95.4436C123.243 96.2525 123.363 96.7967 123.393 97.0778H123.438C123.479 96.8643 123.544 96.5889 123.634 96.2525C123.729 95.9117 123.809 95.6421 123.876 95.4436L125.006 91.9107H126.017L127.118 95.4436C127.328 96.0871 127.471 96.6285 127.545 97.0663H127.59C127.605 96.9319 127.645 96.7241 127.708 96.443C127.776 96.1626 128.168 94.6514 128.883 91.9107H129.849L128.147 98.0664H127.04ZM133.569 98.1785C132.659 98.1785 131.939 97.9017 131.411 97.3474C130.887 96.7931 130.625 96.0238 130.625 95.0389C130.625 94.0467 130.868 93.258 131.355 92.6742C131.846 92.0904 132.503 91.7978 133.327 91.7978C134.099 91.7978 134.71 92.0523 135.159 92.5621C135.609 93.0675 135.833 93.7361 135.833 94.5672V95.1568H131.591C131.61 95.8793 131.792 96.4279 132.136 96.8025C132.484 97.177 132.974 97.364 133.603 97.364C134.266 97.364 134.921 97.2259 135.569 96.9484V97.7802C135.24 97.9219 134.927 98.0232 134.631 98.0829C134.339 98.1469 133.985 98.1785 133.569 98.1785ZM133.316 92.5786C132.822 92.5786 132.426 92.7397 132.131 93.0617C131.839 93.3838 131.666 93.8296 131.613 94.3983H134.833C134.833 93.8109 134.702 93.3615 134.44 93.0502C134.178 92.7361 133.803 92.5786 133.316 92.5786ZM141.217 98.0664L141.031 97.19H140.986C140.679 97.5761 140.372 97.8378 140.064 97.9765C139.761 98.111 139.381 98.1785 138.924 98.1785C138.313 98.1785 137.834 98.0218 137.485 97.7069C137.141 97.392 136.969 96.9448 136.969 96.3646C136.969 95.1215 137.963 94.4695 139.952 94.4098L140.997 94.376V93.9942C140.997 93.5111 140.892 93.1552 140.683 92.9273C140.477 92.6951 140.145 92.5786 139.688 92.5786C139.175 92.5786 138.594 92.7361 137.946 93.0502L137.659 92.337C137.963 92.1724 138.294 92.043 138.654 91.9495C139.017 91.8561 139.381 91.8093 139.744 91.8093C140.479 91.8093 141.022 91.9718 141.373 92.2982C141.729 92.6239 141.908 93.1459 141.908 93.8648V98.0664H141.217ZM139.109 97.4093C139.69 97.4093 140.145 97.2504 140.474 96.9319C140.808 96.6134 140.975 96.1676 140.975 95.5946V95.0389L140.042 95.0784C139.301 95.1043 138.765 95.2208 138.435 95.4264C138.109 95.6284 137.946 95.9447 137.946 96.3754C137.946 96.7126 138.048 96.9693 138.25 97.1454C138.456 97.3215 138.742 97.4093 139.109 97.4093ZM146.645 91.7978C146.918 91.7978 147.163 91.8201 147.38 91.8654L147.251 92.7303C146.996 92.6742 146.772 92.6462 146.577 92.6462C146.079 92.6462 145.651 92.8482 145.296 93.253C144.944 93.657 144.767 94.161 144.767 94.7635V98.0664H143.835V91.9107H144.605L144.711 93.0502H144.757C144.985 92.6498 145.26 92.3406 145.582 92.1235C145.905 91.9064 146.258 91.7978 146.645 91.7978ZM149.376 95.8031H148.785L148.499 89.8545H149.662L149.376 95.8031ZM148.397 97.4711C148.397 96.9621 148.623 96.7068 149.072 96.7068C149.289 96.7068 149.455 96.773 149.572 96.9038C149.692 97.0347 149.752 97.2238 149.752 97.4711C149.752 97.7105 149.692 97.8982 149.572 98.0326C149.452 98.1634 149.285 98.2296 149.072 98.2296C148.877 98.2296 148.716 98.1713 148.589 98.0549C148.461 97.9355 148.397 97.7407 148.397 97.4711Z" fill="white"/>
<path d="M162.774 94.8051V95.3997H163.854V99.589H164.531V94.8051H162.774ZM166.488 98.9945L167.95 97.5868C168.6 96.9649 168.737 96.5479 168.737 96.0834C168.737 95.2631 168.094 94.7505 167.096 94.7505C166.351 94.7505 165.715 95.0172 165.346 95.4752L165.811 95.8785C166.105 95.5226 166.521 95.3587 167.034 95.3587C167.704 95.3587 168.053 95.66 168.053 96.1517C168.053 96.4523 167.958 96.7528 167.451 97.2453L165.503 99.1246V99.589H168.942V98.9945H166.488ZM169.955 96.8693C170.201 96.8693 170.407 96.6708 170.407 96.3976C170.407 96.1244 170.201 95.9332 169.955 95.9332C169.703 95.9332 169.49 96.1244 169.49 96.3976C169.49 96.6708 169.703 96.8693 169.955 96.8693ZM169.955 99.63C170.201 99.63 170.407 99.4323 170.407 99.1584C170.407 98.8852 170.201 98.694 169.955 98.694C169.703 98.694 169.49 98.8852 169.49 99.1584C169.49 99.4323 169.703 99.63 169.955 99.63ZM172.885 96.8146L174.136 95.2703V94.8051H170.978V95.3997H173.281L172.078 96.8764V97.3545H172.461C173.281 97.3545 173.644 97.6824 173.644 98.1885C173.644 98.7076 173.234 99.0355 172.516 99.0355C171.928 99.0355 171.395 98.8241 171.073 98.5228L170.759 99.0628C171.163 99.4251 171.832 99.6437 172.516 99.6437C173.733 99.6437 174.328 98.988 174.328 98.1813C174.328 97.443 173.842 96.9038 172.885 96.8146ZM179.129 97.8262H178.22V96.7873H177.577V97.8262H175.738L178.082 94.8051H177.344L174.897 97.9355V98.4136H177.557V99.589H178.22V98.4136H179.129V97.8262Z" fill="#F7F7F4"/>
</g>
<defs>
<clipPath id="clip0">
<rect width="187" height="110" fill="white" transform="translate(0 0.288574)"/>
</clipPath>
</defs>
</svg>
