<svg width="172" height="87" viewBox="0 0 172 87" fill="none" xmlns="http://www.w3.org/2000/svg">
<g clip-path="url(#clip0)">
<path d="M171.268 0.288574H0V86.2886H171.268V0.288574Z" fill="white"/>
<path d="M0.129181 53.1753C0.129181 47.4928 4.75539 42.8862 10.4621 42.8862H161.139C166.845 42.8862 171.472 47.4928 171.472 53.1753V75.8637C171.472 81.5463 166.845 86.1524 161.139 86.1524H0.129181V53.1753Z" fill="#F7F7F4"/>
<path d="M145.535 58.2977C148.704 58.2977 151.273 57.2556 151.273 55.9701C151.273 54.6847 148.704 53.6426 145.535 53.6426C142.365 53.6426 139.796 54.6847 139.796 55.9701C139.796 57.2556 142.365 58.2977 145.535 58.2977Z" fill="#D9D6D6"/>
<path d="M25.4106 59.9105H24.1063L21.1421 64.7512L18.191 59.9105H16.7813L20.4438 65.8926V69.0935H21.7481V65.9188L25.4106 59.9105ZM28.7686 69.1722C30.8634 69.1722 32.3916 67.6898 32.3916 65.6171C32.3916 63.5443 30.8634 62.075 28.7686 62.075C26.6739 62.075 25.1325 63.5443 25.1325 65.6171C25.1325 67.6898 26.6739 69.1722 28.7686 69.1722ZM28.7686 68.0703C27.4248 68.0703 26.4104 67.0995 26.4104 65.6171C26.4104 64.1347 27.4248 63.177 28.7686 63.177C30.1124 63.177 31.1137 64.1347 31.1137 65.6171C31.1137 67.0995 30.1124 68.0703 28.7686 68.0703ZM39.3842 62.1406V65.7351C39.3842 67.2307 38.541 68.044 37.2236 68.044C36.0247 68.044 35.3396 67.3618 35.3396 65.9975V62.1406H34.0749V66.1418C34.0749 68.1883 35.2738 69.1722 37.0787 69.1722C38.0667 69.1722 38.9363 68.7655 39.4501 68.044V69.0935H40.6489V62.1406H39.3842ZM43.3729 59.2808C42.8723 59.2808 42.4902 59.6481 42.4902 60.1728C42.4902 60.5664 42.7142 60.8681 43.0435 60.9862L42.5561 62.9409H43.3861L44.0185 61.1043C44.1897 60.6189 44.2292 60.4221 44.2292 60.1728C44.2292 59.6612 43.8735 59.2808 43.3729 59.2808ZM47.2536 63.3082V62.1406H46.0415V69.0935H47.3063V65.6302C47.3063 64.1084 48.1495 63.2819 49.5064 63.2819C49.5986 63.2819 49.6909 63.2819 49.7963 63.2951V62.075C48.571 62.075 47.7015 62.4948 47.2536 63.3082ZM57.6013 65.6564C57.6013 63.5181 56.1653 62.075 54.1496 62.075C52.1339 62.075 50.6452 63.5574 50.6452 65.6171C50.6452 67.6898 52.1471 69.1722 54.3999 69.1722C55.5593 69.1722 56.521 68.7787 57.1534 68.044L56.4552 67.2307C55.9413 67.7948 55.2563 68.0703 54.4395 68.0703C53.0561 68.0703 52.0681 67.2569 51.91 66.0369H57.575C57.5882 65.9188 57.6013 65.7614 57.6013 65.6564ZM54.1496 63.1376C55.3748 63.1376 56.2575 63.9641 56.3893 65.1317H51.91C52.0417 63.951 52.9376 63.1376 54.1496 63.1376ZM65.4382 62.075C64.3184 62.075 63.2776 62.3899 62.553 62.9671L63.08 63.9116C63.6202 63.4525 64.4633 63.1639 65.2933 63.1639C66.5449 63.1639 67.1641 63.7805 67.1641 64.8431V65.0923H65.1616C63.08 65.0923 62.3554 66.0106 62.3554 67.1257C62.3554 68.3326 63.3567 69.1722 64.9376 69.1722C66.0311 69.1722 66.8084 68.8049 67.23 68.1752V69.0935H68.4288V64.8955C68.4288 62.9933 67.3485 62.075 65.4382 62.075ZM65.1484 68.2014C64.1867 68.2014 63.607 67.7685 63.607 67.0732C63.607 66.4829 63.9627 65.9975 65.2143 65.9975H67.1641V66.9683C66.8479 67.7685 66.097 68.2014 65.1484 68.2014ZM80.0737 62.1406L77.9921 67.7029L75.9237 62.1406H74.8566L72.7487 67.6767L70.7198 62.1406H69.5209L72.1163 69.0935H73.3284L75.3704 63.8198L77.3861 69.0935H78.5981L81.2067 62.1406H80.0737ZM88.6078 65.6564C88.6078 63.5181 87.1718 62.075 85.1561 62.075C83.1404 62.075 81.6517 63.5574 81.6517 65.6171C81.6517 67.6898 83.1536 69.1722 85.4064 69.1722C86.5658 69.1722 87.5275 68.7787 88.1599 68.044L87.4616 67.2307C86.9478 67.7948 86.2627 68.0703 85.4459 68.0703C84.0626 68.0703 83.0745 67.2569 82.9164 66.0369H88.5815C88.5946 65.9188 88.6078 65.7614 88.6078 65.6564ZM85.1561 63.1376C86.3813 63.1376 87.264 63.9641 87.3958 65.1317H82.9164C83.0482 63.951 83.944 63.1376 85.1561 63.1376ZM92.3662 69.1722C94.2238 69.1722 95.3831 68.372 95.3831 67.1126C95.3831 64.4101 90.9565 65.7483 90.9565 64.1084C90.9565 63.5574 91.4967 63.1508 92.6033 63.1508C93.2884 63.1508 93.9866 63.2951 94.619 63.7017L95.1592 62.7047C94.5532 62.3112 93.5255 62.075 92.6165 62.075C90.8248 62.075 89.7049 62.9146 89.7049 64.1609C89.7049 66.9289 94.1184 65.5777 94.1184 67.1388C94.1184 67.7292 93.6309 68.0834 92.4584 68.0834C91.5494 68.0834 90.6008 67.7816 90.008 67.3618L89.481 68.3589C90.0607 68.818 91.2068 69.1722 92.3662 69.1722ZM99.9547 69.1722C102.049 69.1722 103.578 67.6898 103.578 65.6171C103.578 63.5443 102.049 62.075 99.9547 62.075C97.8599 62.075 96.3185 63.5443 96.3185 65.6171C96.3185 67.6898 97.8599 69.1722 99.9547 69.1722ZM99.9547 68.0703C98.6109 68.0703 97.5965 67.0995 97.5965 65.6171C97.5965 64.1347 98.6109 63.177 99.9547 63.177C101.298 63.177 102.3 64.1347 102.3 65.6171C102.3 67.0995 101.298 68.0703 99.9547 68.0703ZM114.062 62.075C112.876 62.075 111.901 62.5735 111.374 63.3607C110.913 62.4948 110.017 62.075 108.95 62.075C107.896 62.075 107.04 62.4686 106.539 63.177V62.1406H105.327V69.0935H106.592V65.5121C106.592 64.0035 107.422 63.2032 108.686 63.2032C109.833 63.2032 110.491 63.8723 110.491 65.2366V69.0935H111.756V65.5121C111.756 64.0035 112.586 63.2032 113.851 63.2032C114.997 63.2032 115.656 63.8723 115.656 65.2366V69.0935H116.92V65.0923C116.92 63.0458 115.761 62.075 114.062 62.075ZM125.597 65.6564C125.597 63.5181 124.161 62.075 122.145 62.075C120.129 62.075 118.64 63.5574 118.64 65.6171C118.64 67.6898 120.142 69.1722 122.395 69.1722C123.555 69.1722 124.516 68.7787 125.149 68.044L124.45 67.2307C123.937 67.7948 123.252 68.0703 122.435 68.0703C121.051 68.0703 120.063 67.2569 119.905 66.0369H125.57C125.583 65.9188 125.597 65.7614 125.597 65.6564ZM122.145 63.1376C123.37 63.1376 124.253 63.9641 124.385 65.1317H119.905C120.037 63.951 120.933 63.1376 122.145 63.1376ZM127.418 66.1943H128.42L128.67 59.9105H127.181L127.418 66.1943ZM127.932 69.1722C128.42 69.1722 128.775 68.7918 128.775 68.3326C128.775 67.8604 128.42 67.493 127.932 67.493C127.432 67.493 127.063 67.8604 127.063 68.3326C127.063 68.7918 127.432 69.1722 127.932 69.1722Z" fill="#504F4F"/>
<path d="M5.7141 35.1016H1.68426L0.816292 37.0257H0.0206604L3.32719 29.8233H4.0815L7.38802 37.0257H6.58206L5.7141 35.1016ZM5.43511 34.4843L3.69918 30.6155L1.96325 34.4843H5.43511ZM21.2188 29.8233L18.7802 37.0257H17.9743L15.8561 30.8831L13.7274 37.0257H12.9318L10.4932 29.8233H11.2785L13.3658 36.0173L15.5254 29.8233H16.2383L18.3669 36.0482L20.4852 29.8233H21.2188ZM26.7845 34.546H22.2381C22.2794 35.1084 22.4964 35.5646 22.889 35.9144C23.2817 36.2574 23.7776 36.4289 24.3769 36.4289C24.7145 36.4289 25.0245 36.3706 25.3069 36.254C25.5893 36.1305 25.8339 35.9522 26.0406 35.719L26.4539 36.1923C26.2128 36.4804 25.9097 36.6999 25.5446 36.8507C25.1864 37.0017 24.7902 37.0771 24.3563 37.0771C23.7983 37.0771 23.3023 36.9605 22.8684 36.7273C22.4412 36.4872 22.1072 36.158 21.866 35.7395C21.6249 35.3211 21.5044 34.8478 21.5044 34.3196C21.5044 33.7915 21.6181 33.3182 21.8454 32.8998C22.0796 32.4813 22.3965 32.1555 22.796 31.9223C23.2024 31.6891 23.6571 31.5725 24.16 31.5725C24.6628 31.5725 25.114 31.6891 25.5136 31.9223C25.9131 32.1555 26.2266 32.4813 26.4539 32.8998C26.6812 33.3113 26.7949 33.7846 26.7949 34.3196L26.7845 34.546ZM24.16 32.2001C23.6365 32.2001 23.1955 32.3681 22.8373 32.7042C22.486 33.0335 22.2863 33.4656 22.2381 34.0007H26.0922C26.044 33.4656 25.8408 33.0335 25.4826 32.7042C25.1312 32.3681 24.6904 32.2001 24.16 32.2001ZM28.2881 29.3911H29.0217V37.0257H28.2881V29.3911ZM31.063 29.3911H31.7967V37.0257H31.063V29.3911ZM46.6273 29.8233L44.1887 37.0257H43.3827L41.2645 30.8831L39.1359 37.0257H38.3403L35.9017 29.8233H36.687L38.7743 36.0173L40.9339 29.8233H41.6468L43.7754 36.0482L45.8936 29.8233H46.6273ZM47.844 31.6136H48.5776V37.0257H47.844V31.6136ZM48.216 30.4303C48.0644 30.4303 47.937 30.3789 47.8336 30.276C47.7303 30.1731 47.6787 30.0497 47.6787 29.9056C47.6787 29.7684 47.7303 29.6484 47.8336 29.5455C47.937 29.4426 48.0644 29.3911 48.216 29.3911C48.3675 29.3911 48.4949 29.4426 48.5983 29.5455C48.7016 29.6415 48.7533 29.7581 48.7533 29.8953C48.7533 30.0462 48.7016 30.1731 48.5983 30.276C48.4949 30.3789 48.3675 30.4303 48.216 30.4303ZM52.0759 37.0771C51.635 37.0771 51.2113 37.0154 50.8049 36.8919C50.4054 36.7616 50.092 36.6004 49.8646 36.4083L50.1953 35.8321C50.4226 36.0105 50.7085 36.1579 51.0529 36.2745C51.3973 36.3843 51.7555 36.4392 52.1276 36.4392C52.6235 36.4392 52.9886 36.3637 53.2228 36.2128C53.464 36.0551 53.5845 35.8356 53.5845 35.5543C53.5845 35.3554 53.519 35.2011 53.3881 35.0913C53.2573 34.9747 53.0919 34.889 52.8922 34.8341C52.6924 34.7724 52.4272 34.7141 52.0965 34.6592C51.6557 34.5768 51.3009 34.4946 51.0322 34.4123C50.7636 34.3231 50.5328 34.1756 50.3399 33.9698C50.1539 33.764 50.0609 33.4794 50.0609 33.1158C50.0609 32.6631 50.2504 32.2927 50.6293 32.0046C51.0082 31.7165 51.5351 31.5725 52.2102 31.5725C52.5615 31.5725 52.9128 31.6205 53.2641 31.7165C53.6155 31.8057 53.9048 31.9257 54.1321 32.0766L53.8118 32.6631C53.3641 32.3544 52.8302 32.2001 52.2102 32.2001C51.7418 32.2001 51.387 32.2824 51.1459 32.447C50.9117 32.6117 50.7946 32.8277 50.7946 33.0952C50.7946 33.301 50.86 33.4656 50.9909 33.5891C51.1287 33.7126 51.2975 33.8052 51.4972 33.8669C51.697 33.9218 51.9725 33.9801 52.3239 34.0418C52.7578 34.1242 53.1057 34.2065 53.3675 34.2887C53.6292 34.3711 53.8531 34.5117 54.0391 34.7106C54.2252 34.9095 54.3181 35.1839 54.3181 35.5338C54.3181 36.0071 54.1184 36.3843 53.7188 36.6655C53.3261 36.9399 52.7785 37.0771 52.0759 37.0771ZM58.4436 31.5725C59.1256 31.5725 59.6664 31.7713 60.0659 32.1692C60.4723 32.5602 60.6755 33.133 60.6755 33.8875V37.0257H59.9419V33.9595C59.9419 33.397 59.8007 32.9683 59.5182 32.6734C59.2358 32.3784 58.8329 32.2309 58.3093 32.2309C57.7238 32.2309 57.2588 32.4059 56.9144 32.7557C56.5768 33.0987 56.408 33.5754 56.408 34.1859V37.0257H55.6744V29.3911H56.408V32.5602C56.6078 32.2446 56.8833 32.0011 57.2346 31.8297C57.586 31.6582 57.989 31.5725 58.4436 31.5725ZM67.4199 34.546H62.8735C62.9148 35.1084 63.1317 35.5646 63.5244 35.9144C63.9171 36.2574 64.413 36.4289 65.0123 36.4289C65.3499 36.4289 65.6599 36.3706 65.9423 36.254C66.2247 36.1305 66.4693 35.9522 66.676 35.719L67.0893 36.1923C66.8482 36.4804 66.5451 36.6999 66.18 36.8507C65.8218 37.0017 65.4256 37.0771 64.9917 37.0771C64.4337 37.0771 63.9377 36.9605 63.5038 36.7273C63.0766 36.4872 62.7426 36.158 62.5014 35.7395C62.2603 35.3211 62.1398 34.8478 62.1398 34.3196C62.1398 33.7915 62.2535 33.3182 62.4808 32.8998C62.715 32.4813 63.0319 32.1555 63.4314 31.9223C63.8378 31.6891 64.2925 31.5725 64.7954 31.5725C65.2982 31.5725 65.7494 31.6891 66.149 31.9223C66.5485 32.1555 66.862 32.4813 67.0893 32.8998C67.3166 33.3113 67.4303 33.7846 67.4303 34.3196L67.4199 34.546ZM64.7954 32.2001C64.2719 32.2001 63.8309 32.3681 63.4727 32.7042C63.1214 33.0335 62.9217 33.4656 62.8735 34.0007H66.7277C66.6794 33.4656 66.4762 33.0335 66.118 32.7042C65.7666 32.3681 65.3258 32.2001 64.7954 32.2001ZM69.6262 32.6734C69.7984 32.3098 70.0533 32.0355 70.3908 31.8503C70.7352 31.665 71.1589 31.5725 71.6618 31.5725V32.2824L71.4861 32.2721C70.9143 32.2721 70.4666 32.447 70.1428 32.7969C69.819 33.1467 69.6571 33.6371 69.6571 34.2682V37.0257H68.9235V31.6136H69.6262V32.6734Z" fill="#504F4F"/>
<path d="M146.77 70.2546V75.3563H146.046V70.8887H144.889V70.2546H146.77ZM151.492 74.7222V75.3563H147.81V74.8607L149.896 72.8565C150.15 72.6135 150.321 72.4046 150.409 72.2297C150.496 72.0499 150.54 71.8702 150.54 71.6904C150.54 71.4231 150.445 71.2166 150.255 71.0709C150.07 70.9202 149.801 70.8449 149.45 70.8449C148.884 70.8449 148.447 71.0295 148.14 71.3988L147.642 70.9688C147.842 70.7259 148.103 70.5364 148.425 70.4004C148.752 70.2643 149.115 70.1963 149.516 70.1963C150.052 70.1963 150.48 70.3251 150.796 70.5826C151.113 70.8352 151.272 71.1802 151.272 71.6175C151.272 71.8895 151.214 72.1471 151.097 72.39C150.979 72.6329 150.758 72.9099 150.43 73.2209L148.864 74.7222H151.492ZM152.576 72.4556C152.44 72.4556 152.323 72.4095 152.225 72.3171C152.128 72.22 152.079 72.0985 152.079 71.9527C152.079 71.8119 152.128 71.6952 152.225 71.6029C152.323 71.5057 152.44 71.4571 152.576 71.4571C152.713 71.4571 152.828 71.5033 152.92 71.5956C153.013 71.688 153.06 71.807 153.06 71.9527C153.06 72.0985 153.011 72.22 152.913 72.3171C152.821 72.4095 152.708 72.4556 152.576 72.4556ZM152.576 75.4C152.44 75.4 152.323 75.3541 152.225 75.2615C152.128 75.1646 152.079 75.0429 152.079 74.8971C152.079 74.7565 152.128 74.6399 152.225 74.5473C152.323 74.4504 152.44 74.4015 152.576 74.4015C152.713 74.4015 152.828 74.4475 152.92 74.54C153.013 74.6326 153.06 74.7514 153.06 74.8971C153.06 75.0429 153.011 75.1646 152.913 75.2615C152.821 75.3541 152.708 75.4 152.576 75.4ZM155.713 72.3973C156.216 72.4459 156.599 72.6014 156.863 72.8637C157.126 73.1212 157.258 73.4519 157.258 73.8549C157.258 74.1465 157.185 74.411 157.038 74.6493C156.892 74.8826 156.672 75.0699 156.379 75.2105C156.092 75.3468 155.738 75.4146 155.318 75.4146C154.952 75.4146 154.601 75.3614 154.264 75.2543C153.928 75.1427 153.652 74.9897 153.437 74.7951L153.774 74.2193C153.95 74.3848 154.174 74.5182 154.447 74.6202C154.72 74.7171 155.011 74.766 155.318 74.766C155.699 74.766 155.994 74.6858 156.204 74.5254C156.418 74.3651 156.526 74.1443 156.526 73.8622C156.526 73.5802 156.421 73.3615 156.211 73.2063C156.001 73.0508 155.684 72.9731 155.26 72.9731H154.85V72.4629L156.138 70.8887H153.671V70.2546H157.053V70.7502L155.713 72.3973ZM162.398 74.1027H161.425V75.3563H160.715V74.1027H157.867V73.5926L160.488 70.2546H161.278L158.768 73.476H160.737V72.3682H161.425V73.476H162.398V74.1027Z" fill="#BEBEBE"/>
<path d="M145.238 27.696V55.86" stroke="#556080" stroke-width="3.52941" stroke-miterlimit="10"/>
<path d="M145.033 27.696C152.617 27.696 158.765 21.5741 158.765 14.0222C158.765 6.47036 152.617 0.348389 145.033 0.348389C137.448 0.348389 131.3 6.47036 131.3 14.0222C131.3 21.5741 137.448 27.696 145.033 27.696Z" fill="#DD352E"/>
<path d="M140.113 13.002C141.811 13.002 143.187 11.6314 143.187 9.94071C143.187 8.25001 141.811 6.87939 140.113 6.87939C138.415 6.87939 137.039 8.25001 137.039 9.94071C137.039 11.6314 138.415 13.002 140.113 13.002Z" fill="#F76363"/>
</g>
<defs>
<clipPath id="clip0">
<rect width="172" height="86" fill="white" transform="translate(0 0.288574)"/>
</clipPath>
</defs>
</svg>
