<svg width="270" height="333" viewBox="0 0 270 333" fill="none" xmlns="http://www.w3.org/2000/svg">
<g clip-path="url(#clip0)">
<path d="M270 0.3125H0V332.312H270V0.3125Z" fill="white"/>
<path d="M0 166.312C0 257.992 74.2626 332.312 165.87 332.312V0.3125C74.2626 0.3125 0 74.6332 0 166.312Z" fill="#1B4E65"/>
<path d="M217.935 322.168C246.69 322.168 270 298.84 270 270.063C270 241.285 246.69 217.957 217.935 217.957C189.181 217.957 165.87 241.285 165.87 270.063C165.87 298.84 189.181 322.168 217.935 322.168Z" fill="#F4BAB9"/>
<path d="M217.935 217.957C246.69 217.957 270 194.835 270 166.312C270 137.79 246.69 114.668 217.935 114.668C189.181 114.668 165.87 137.79 165.87 166.312C165.87 194.835 189.181 217.957 217.935 217.957Z" fill="#FB7560"/>
<path d="M217.935 114.668C246.69 114.668 270 91.3397 270 62.5626C270 33.7855 246.69 10.457 217.935 10.457C189.181 10.457 165.87 33.7855 165.87 62.5626C165.87 91.3397 189.181 114.668 217.935 114.668Z" fill="#FFEC83"/>
</g>
<defs>
<clipPath id="clip0">
<rect width="270" height="332" fill="white" transform="translate(0 0.3125)"/>
</clipPath>
</defs>
</svg>
